# xmcd CD database file
#
# Track frame offsets:
#	150
#	15215
#	28342
#
# Disc length: 605 seconds
#
# Revision: 0
# Processed by: cddbd v1.4PL0 Copyright (c) Steve Scherf et al.
# Submitted via: CDex 1.51
#
DISCID=17025b03
DTITLE=The Sharp - Scratch My Back [CD Single)
DYEAR=1993
DGENRE=Jazz
TTITLE0=Scratch My Back
TTITLE1=In Collingwood
TTITLE2=I Was Happy
EXTD=YEAR: 1993
EXTT0=
EXTT1=
EXTT2=
PLAYORDER=
